<mxfile host="app.diagrams.net" modified="2024-05-11T08:15:20.960Z" agent="Mozilla/5.0 (X11; Linux x86_64) AppleWebKit/537.36 (KHTML, like Gecko) Chrome/124.0.0.0 Safari/537.36" etag="o9gf1inWuMgmI-irRWNe" version="24.4.0" type="device">
  <diagram id="aH10ofqZKxqE-osi1d8p" name="Overview">
    <mxGraphModel dx="1495" dy="857" grid="1" gridSize="10" guides="1" tooltips="1" connect="1" arrows="1" fold="1" page="1" pageScale="1" pageWidth="850" pageHeight="1100" background="#ffffff" math="0" shadow="0">
      <root>
        <mxCell id="0" />
        <mxCell id="1" parent="0" />
        <mxCell id="jDVds_39IgZBUno7D3Sx-9" value="" style="endArrow=classic;html=1;exitX=1;exitY=0.5;exitDx=0;exitDy=0;entryX=-0.011;entryY=0.613;entryDx=0;entryDy=0;entryPerimeter=0;labelBackgroundColor=none;fontColor=default;rounded=1;" parent="1" source="jDVds_39IgZBUno7D3Sx-4" target="jDVds_39IgZBUno7D3Sx-6" edge="1">
          <mxGeometry width="50" height="50" relative="1" as="geometry">
            <mxPoint x="150" y="120" as="sourcePoint" />
            <mxPoint x="250" y="120" as="targetPoint" />
          </mxGeometry>
        </mxCell>
        <mxCell id="jDVds_39IgZBUno7D3Sx-17" value="" style="group;labelBackgroundColor=none;rounded=1;" parent="1" vertex="1" connectable="0">
          <mxGeometry x="570" y="40" width="140" height="250" as="geometry" />
        </mxCell>
        <mxCell id="jDVds_39IgZBUno7D3Sx-11" value="" style="rounded=1;whiteSpace=wrap;html=1;labelBackgroundColor=none;" parent="jDVds_39IgZBUno7D3Sx-17" vertex="1">
          <mxGeometry width="140" height="250" as="geometry" />
        </mxCell>
        <mxCell id="jDVds_39IgZBUno7D3Sx-12" value="" style="rounded=1;whiteSpace=wrap;html=1;labelBackgroundColor=none;" parent="jDVds_39IgZBUno7D3Sx-17" vertex="1">
          <mxGeometry x="10" y="30" width="120" height="60" as="geometry" />
        </mxCell>
        <mxCell id="jDVds_39IgZBUno7D3Sx-13" value="" style="rounded=1;whiteSpace=wrap;html=1;labelBackgroundColor=none;" parent="jDVds_39IgZBUno7D3Sx-17" vertex="1">
          <mxGeometry x="10" y="150" width="120" height="60" as="geometry" />
        </mxCell>
        <mxCell id="jDVds_39IgZBUno7D3Sx-14" value="Live Data" style="text;html=1;strokeColor=none;fillColor=none;align=center;verticalAlign=middle;whiteSpace=wrap;rounded=1;labelBackgroundColor=none;" parent="jDVds_39IgZBUno7D3Sx-17" vertex="1">
          <mxGeometry x="40" y="167" width="70" height="20" as="geometry" />
        </mxCell>
        <mxCell id="jDVds_39IgZBUno7D3Sx-15" value="Historical-Data" style="text;html=1;strokeColor=none;fillColor=none;align=center;verticalAlign=middle;whiteSpace=wrap;rounded=1;labelBackgroundColor=none;" parent="jDVds_39IgZBUno7D3Sx-17" vertex="1">
          <mxGeometry x="20" y="54" width="90" height="20" as="geometry" />
        </mxCell>
        <mxCell id="jDVds_39IgZBUno7D3Sx-16" value="Market Data" style="text;html=1;strokeColor=none;fillColor=none;align=center;verticalAlign=middle;whiteSpace=wrap;rounded=1;labelBackgroundColor=none;" parent="jDVds_39IgZBUno7D3Sx-17" vertex="1">
          <mxGeometry x="40" y="110" width="70" height="20" as="geometry" />
        </mxCell>
        <mxCell id="jDVds_39IgZBUno7D3Sx-18" value="" style="group;labelBackgroundColor=none;rounded=1;" parent="1" vertex="1" connectable="0">
          <mxGeometry x="260" y="80" width="180" height="80" as="geometry" />
        </mxCell>
        <mxCell id="jDVds_39IgZBUno7D3Sx-6" value="" style="rounded=1;whiteSpace=wrap;html=1;labelBackgroundColor=none;" parent="jDVds_39IgZBUno7D3Sx-18" vertex="1">
          <mxGeometry y="-10" width="180" height="80" as="geometry" />
        </mxCell>
        <mxCell id="jDVds_39IgZBUno7D3Sx-7" value="Sentiment Analytic&amp;nbsp; Service&amp;nbsp;" style="text;html=1;strokeColor=none;fillColor=none;align=center;verticalAlign=middle;whiteSpace=wrap;rounded=1;labelBackgroundColor=none;" parent="jDVds_39IgZBUno7D3Sx-18" vertex="1">
          <mxGeometry x="30" y="10" width="140" height="45" as="geometry" />
        </mxCell>
        <mxCell id="jDVds_39IgZBUno7D3Sx-19" value="" style="group;labelBackgroundColor=none;rounded=1;" parent="1" vertex="1" connectable="0">
          <mxGeometry x="30" y="90" width="120" height="60" as="geometry" />
        </mxCell>
        <mxCell id="jDVds_39IgZBUno7D3Sx-4" value="" style="rounded=1;whiteSpace=wrap;html=1;labelBackgroundColor=none;" parent="jDVds_39IgZBUno7D3Sx-19" vertex="1">
          <mxGeometry width="120" height="60" as="geometry" />
        </mxCell>
        <mxCell id="jDVds_39IgZBUno7D3Sx-5" value="Stock Screener" style="text;html=1;strokeColor=none;fillColor=none;align=center;verticalAlign=middle;whiteSpace=wrap;rounded=1;labelBackgroundColor=none;" parent="jDVds_39IgZBUno7D3Sx-19" vertex="1">
          <mxGeometry x="20" y="20" width="90" height="20" as="geometry" />
        </mxCell>
        <mxCell id="jDVds_39IgZBUno7D3Sx-25" value="" style="endArrow=classic;html=1;exitX=0.539;exitY=1.038;exitDx=0;exitDy=0;entryX=0.5;entryY=0;entryDx=0;entryDy=0;exitPerimeter=0;labelBackgroundColor=none;fontColor=default;rounded=1;entryPerimeter=0;" parent="1" source="jDVds_39IgZBUno7D3Sx-6" target="jbDG1TBYUmQUTLuGAOxX-4" edge="1">
          <mxGeometry width="50" height="50" relative="1" as="geometry">
            <mxPoint x="480" y="570" as="sourcePoint" />
            <mxPoint x="530" y="520" as="targetPoint" />
          </mxGeometry>
        </mxCell>
        <mxCell id="jDVds_39IgZBUno7D3Sx-2" value="" style="rounded=1;whiteSpace=wrap;html=1;labelBackgroundColor=none;" parent="1" vertex="1">
          <mxGeometry x="120" y="320" width="515" height="390" as="geometry" />
        </mxCell>
        <mxCell id="jDVds_39IgZBUno7D3Sx-28" value="" style="group;labelBackgroundColor=none;rounded=1;" parent="1" vertex="1" connectable="0">
          <mxGeometry x="760" y="274" width="70" height="560" as="geometry" />
        </mxCell>
        <mxCell id="jDVds_39IgZBUno7D3Sx-26" value="" style="rounded=1;whiteSpace=wrap;html=1;labelBackgroundColor=none;" parent="jDVds_39IgZBUno7D3Sx-28" vertex="1">
          <mxGeometry width="70" height="560" as="geometry" />
        </mxCell>
        <mxCell id="jDVds_39IgZBUno7D3Sx-27" value="Binanace" style="text;html=1;strokeColor=none;fillColor=none;align=center;verticalAlign=middle;whiteSpace=wrap;rounded=1;labelBackgroundColor=none;" parent="jDVds_39IgZBUno7D3Sx-28" vertex="1">
          <mxGeometry x="15" y="200" width="40" height="120" as="geometry" />
        </mxCell>
        <mxCell id="jDVds_39IgZBUno7D3Sx-20" value="" style="shape=cylinder3;whiteSpace=wrap;html=1;boundedLbl=1;backgroundOutline=1;size=15;labelBackgroundColor=none;rounded=1;" parent="1" vertex="1">
          <mxGeometry x="530" y="330" width="60" height="80" as="geometry" />
        </mxCell>
        <mxCell id="jDVds_39IgZBUno7D3Sx-21" value="Tick Data" style="text;html=1;strokeColor=none;fillColor=none;align=center;verticalAlign=middle;whiteSpace=wrap;rounded=1;labelBackgroundColor=none;" parent="1" vertex="1">
          <mxGeometry x="540" y="370" width="40" height="20" as="geometry" />
        </mxCell>
        <mxCell id="jDVds_39IgZBUno7D3Sx-3" value="Algo\Technical Analysis\ML Service" style="text;html=1;strokeColor=none;fillColor=none;align=center;verticalAlign=middle;whiteSpace=wrap;rounded=1;labelBackgroundColor=none;" parent="1" vertex="1">
          <mxGeometry x="235" y="670" width="160" height="30" as="geometry" />
        </mxCell>
        <mxCell id="jDVds_39IgZBUno7D3Sx-29" value="" style="endArrow=classic;html=1;entryX=1;entryY=0.5;entryDx=0;entryDy=0;exitX=0.5;exitY=0;exitDx=0;exitDy=0;labelBackgroundColor=none;fontColor=default;rounded=1;" parent="1" source="jDVds_39IgZBUno7D3Sx-26" target="jDVds_39IgZBUno7D3Sx-11" edge="1">
          <mxGeometry width="50" height="50" relative="1" as="geometry">
            <mxPoint x="480" y="570" as="sourcePoint" />
            <mxPoint x="530" y="520" as="targetPoint" />
          </mxGeometry>
        </mxCell>
        <mxCell id="jDVds_39IgZBUno7D3Sx-10" value="" style="endArrow=classic;html=1;exitX=0;exitY=0.5;exitDx=0;exitDy=0;labelBackgroundColor=none;fontColor=default;rounded=1;" parent="1" source="jDVds_39IgZBUno7D3Sx-12" target="jDVds_39IgZBUno7D3Sx-20" edge="1">
          <mxGeometry width="50" height="50" relative="1" as="geometry">
            <mxPoint x="480" y="590" as="sourcePoint" />
            <mxPoint x="530" y="540" as="targetPoint" />
            <Array as="points">
              <mxPoint x="530" y="210" />
            </Array>
          </mxGeometry>
        </mxCell>
        <mxCell id="jDVds_39IgZBUno7D3Sx-34" value="" style="group;labelBackgroundColor=none;rounded=1;" parent="1" vertex="1" connectable="0">
          <mxGeometry x="235" y="510" width="120" height="60" as="geometry" />
        </mxCell>
        <mxCell id="jDVds_39IgZBUno7D3Sx-47" value="" style="group;labelBackgroundColor=none;rounded=1;" parent="jDVds_39IgZBUno7D3Sx-34" vertex="1" connectable="0">
          <mxGeometry x="-90" y="-160" width="120" height="60" as="geometry" />
        </mxCell>
        <mxCell id="jDVds_39IgZBUno7D3Sx-32" value="" style="rounded=1;whiteSpace=wrap;html=1;labelBackgroundColor=none;" parent="jDVds_39IgZBUno7D3Sx-47" vertex="1">
          <mxGeometry width="120" height="60" as="geometry" />
        </mxCell>
        <mxCell id="jDVds_39IgZBUno7D3Sx-33" value="Back Testing Engine" style="text;html=1;strokeColor=none;fillColor=none;align=center;verticalAlign=middle;whiteSpace=wrap;rounded=1;labelBackgroundColor=none;" parent="jDVds_39IgZBUno7D3Sx-47" vertex="1">
          <mxGeometry x="40" y="20" width="40" height="20" as="geometry" />
        </mxCell>
        <mxCell id="jDVds_39IgZBUno7D3Sx-37" value="" style="rounded=1;whiteSpace=wrap;html=1;labelBackgroundColor=none;" parent="1" vertex="1">
          <mxGeometry x="20" y="800" width="670" height="80" as="geometry" />
        </mxCell>
        <mxCell id="jDVds_39IgZBUno7D3Sx-38" value="Web server\User Interface" style="text;html=1;strokeColor=none;fillColor=none;align=center;verticalAlign=middle;whiteSpace=wrap;rounded=1;labelBackgroundColor=none;" parent="1" vertex="1">
          <mxGeometry x="280" y="830" width="210" height="20" as="geometry" />
        </mxCell>
        <mxCell id="jDVds_39IgZBUno7D3Sx-39" value="User" style="shape=umlActor;verticalLabelPosition=bottom;verticalAlign=top;html=1;outlineConnect=0;labelBackgroundColor=none;rounded=1;" parent="1" vertex="1">
          <mxGeometry x="395" y="932" width="30" height="60" as="geometry" />
        </mxCell>
        <mxCell id="jDVds_39IgZBUno7D3Sx-40" value="" style="endArrow=classic;startArrow=classic;html=1;exitX=0.5;exitY=0;exitDx=0;exitDy=0;exitPerimeter=0;labelBackgroundColor=none;fontColor=default;rounded=1;" parent="1" source="jDVds_39IgZBUno7D3Sx-39" edge="1">
          <mxGeometry width="50" height="50" relative="1" as="geometry">
            <mxPoint x="360" y="930" as="sourcePoint" />
            <mxPoint x="410" y="880" as="targetPoint" />
          </mxGeometry>
        </mxCell>
        <mxCell id="jDVds_39IgZBUno7D3Sx-41" value="" style="endArrow=classic;startArrow=classic;html=1;entryX=0.5;entryY=1;entryDx=0;entryDy=0;labelBackgroundColor=none;fontColor=default;rounded=1;exitX=0.5;exitY=0;exitDx=0;exitDy=0;" parent="1" source="jDVds_39IgZBUno7D3Sx-37" target="jDVds_39IgZBUno7D3Sx-2" edge="1">
          <mxGeometry width="50" height="50" relative="1" as="geometry">
            <mxPoint x="378" y="790" as="sourcePoint" />
            <mxPoint x="370" y="720" as="targetPoint" />
          </mxGeometry>
        </mxCell>
        <mxCell id="jDVds_39IgZBUno7D3Sx-42" value="" style="endArrow=classic;startArrow=classic;html=1;exitX=0.765;exitY=-0.025;exitDx=0;exitDy=0;entryX=0;entryY=0.75;entryDx=0;entryDy=0;exitPerimeter=0;labelBackgroundColor=none;fontColor=default;rounded=1;" parent="1" source="jDVds_39IgZBUno7D3Sx-37" target="jDVds_39IgZBUno7D3Sx-26" edge="1">
          <mxGeometry width="50" height="50" relative="1" as="geometry">
            <mxPoint x="425" y="810" as="sourcePoint" />
            <mxPoint x="445" y="720" as="targetPoint" />
          </mxGeometry>
        </mxCell>
        <mxCell id="jDVds_39IgZBUno7D3Sx-43" value="" style="endArrow=classic;startArrow=classic;html=1;entryX=0.5;entryY=1;entryDx=0;entryDy=0;exitX=0.104;exitY=0.013;exitDx=0;exitDy=0;exitPerimeter=0;labelBackgroundColor=none;fontColor=default;rounded=1;" parent="1" source="jDVds_39IgZBUno7D3Sx-37" target="jDVds_39IgZBUno7D3Sx-4" edge="1">
          <mxGeometry width="50" height="50" relative="1" as="geometry">
            <mxPoint x="480" y="640" as="sourcePoint" />
            <mxPoint x="530" y="590" as="targetPoint" />
          </mxGeometry>
        </mxCell>
        <mxCell id="jDVds_39IgZBUno7D3Sx-45" value="Strategies\Algo\ML" style="shape=parallelogram;perimeter=parallelogramPerimeter;whiteSpace=wrap;html=1;fixedSize=1;labelBackgroundColor=none;rounded=1;" parent="1" vertex="1">
          <mxGeometry x="150" y="470" width="120" height="60" as="geometry" />
        </mxCell>
        <mxCell id="jDVds_39IgZBUno7D3Sx-50" value="" style="endArrow=classic;html=1;entryX=0.6;entryY=1;entryDx=0;entryDy=0;entryPerimeter=0;labelBackgroundColor=none;fontColor=default;rounded=1;" parent="1" source="jDVds_39IgZBUno7D3Sx-45" target="jDVds_39IgZBUno7D3Sx-32" edge="1">
          <mxGeometry width="50" height="50" relative="1" as="geometry">
            <mxPoint x="480" y="620" as="sourcePoint" />
            <mxPoint x="520" y="600" as="targetPoint" />
            <Array as="points" />
          </mxGeometry>
        </mxCell>
        <mxCell id="jDVds_39IgZBUno7D3Sx-52" value="Paper trading" style="rounded=1;whiteSpace=wrap;html=1;labelBackgroundColor=none;" parent="1" vertex="1">
          <mxGeometry x="320" y="485" width="120" height="60" as="geometry" />
        </mxCell>
        <mxCell id="jDVds_39IgZBUno7D3Sx-53" value="Results" style="rounded=1;whiteSpace=wrap;html=1;labelBackgroundColor=none;" parent="1" vertex="1">
          <mxGeometry x="222" y="428" width="100" height="20" as="geometry" />
        </mxCell>
        <mxCell id="jDVds_39IgZBUno7D3Sx-54" value="Live Trading" style="rounded=1;whiteSpace=wrap;html=1;labelBackgroundColor=none;" parent="1" vertex="1">
          <mxGeometry x="320" y="600" width="120" height="60" as="geometry" />
        </mxCell>
        <mxCell id="jDVds_39IgZBUno7D3Sx-55" value="" style="endArrow=classic;html=1;exitX=0.95;exitY=1;exitDx=0;exitDy=0;exitPerimeter=0;entryX=0.5;entryY=0;entryDx=0;entryDy=0;labelBackgroundColor=none;fontColor=default;rounded=1;" parent="1" source="jDVds_39IgZBUno7D3Sx-32" target="jDVds_39IgZBUno7D3Sx-53" edge="1">
          <mxGeometry width="50" height="50" relative="1" as="geometry">
            <mxPoint x="480" y="620" as="sourcePoint" />
            <mxPoint x="530" y="570" as="targetPoint" />
          </mxGeometry>
        </mxCell>
        <mxCell id="jDVds_39IgZBUno7D3Sx-57" value="" style="endArrow=classic;html=1;exitX=1;exitY=0.75;exitDx=0;exitDy=0;entryX=0;entryY=0.5;entryDx=0;entryDy=0;labelBackgroundColor=none;fontColor=default;rounded=1;" parent="1" source="jDVds_39IgZBUno7D3Sx-45" target="jDVds_39IgZBUno7D3Sx-52" edge="1">
          <mxGeometry width="50" height="50" relative="1" as="geometry">
            <mxPoint x="385" y="440" as="sourcePoint" />
            <mxPoint x="290" y="520" as="targetPoint" />
          </mxGeometry>
        </mxCell>
        <mxCell id="jDVds_39IgZBUno7D3Sx-58" value="" style="endArrow=classic;html=1;exitX=0.75;exitY=1;exitDx=0;exitDy=0;entryX=0;entryY=0.25;entryDx=0;entryDy=0;labelBackgroundColor=none;fontColor=default;rounded=1;" parent="1" source="jDVds_39IgZBUno7D3Sx-45" target="jDVds_39IgZBUno7D3Sx-54" edge="1">
          <mxGeometry width="50" height="50" relative="1" as="geometry">
            <mxPoint x="266.1538461538462" y="521.5384615384614" as="sourcePoint" />
            <mxPoint x="300" y="530" as="targetPoint" />
          </mxGeometry>
        </mxCell>
        <mxCell id="jDVds_39IgZBUno7D3Sx-59" value="" style="endArrow=classic;html=1;labelBackgroundColor=none;fontColor=default;rounded=1;" parent="1" target="jDVds_39IgZBUno7D3Sx-45" edge="1">
          <mxGeometry width="50" height="50" relative="1" as="geometry">
            <mxPoint x="260" y="450" as="sourcePoint" />
            <mxPoint x="354" y="570" as="targetPoint" />
            <Array as="points" />
          </mxGeometry>
        </mxCell>
        <mxCell id="jDVds_39IgZBUno7D3Sx-60" value="" style="endArrow=classic;html=1;labelBackgroundColor=none;fontColor=default;rounded=1;" parent="1" source="jDVds_39IgZBUno7D3Sx-20" target="jDVds_39IgZBUno7D3Sx-52" edge="1">
          <mxGeometry width="50" height="50" relative="1" as="geometry">
            <mxPoint x="480" y="620" as="sourcePoint" />
            <mxPoint x="530" y="570" as="targetPoint" />
          </mxGeometry>
        </mxCell>
        <mxCell id="jDVds_39IgZBUno7D3Sx-61" value="" style="endArrow=classic;html=1;entryX=1;entryY=0.25;entryDx=0;entryDy=0;labelBackgroundColor=none;fontColor=default;rounded=1;" parent="1" source="jDVds_39IgZBUno7D3Sx-13" target="jDVds_39IgZBUno7D3Sx-54" edge="1">
          <mxGeometry width="50" height="50" relative="1" as="geometry">
            <mxPoint x="420" y="495" as="sourcePoint" />
            <mxPoint x="570" y="420" as="targetPoint" />
            <Array as="points">
              <mxPoint x="650" y="560" />
            </Array>
          </mxGeometry>
        </mxCell>
        <mxCell id="jDVds_39IgZBUno7D3Sx-62" value="" style="endArrow=classic;html=1;exitX=1;exitY=0.75;exitDx=0;exitDy=0;entryX=-0.043;entryY=0.573;entryDx=0;entryDy=0;entryPerimeter=0;labelBackgroundColor=none;fontColor=default;rounded=1;" parent="1" source="jDVds_39IgZBUno7D3Sx-54" target="jDVds_39IgZBUno7D3Sx-26" edge="1">
          <mxGeometry width="50" height="50" relative="1" as="geometry">
            <mxPoint x="480" y="620" as="sourcePoint" />
            <mxPoint x="530" y="570" as="targetPoint" />
          </mxGeometry>
        </mxCell>
        <mxCell id="jbDG1TBYUmQUTLuGAOxX-3" value="" style="endArrow=classic;html=1;labelBackgroundColor=none;fontColor=default;rounded=1;exitX=0;exitY=0;exitDx=0;exitDy=52.5;exitPerimeter=0;" parent="1" source="jDVds_39IgZBUno7D3Sx-20" target="jDVds_39IgZBUno7D3Sx-45" edge="1">
          <mxGeometry width="50" height="50" relative="1" as="geometry">
            <mxPoint x="540" y="404.1666666666665" as="sourcePoint" />
            <mxPoint x="427.24137931034466" y="495" as="targetPoint" />
            <Array as="points">
              <mxPoint x="410" y="440" />
            </Array>
          </mxGeometry>
        </mxCell>
        <mxCell id="jbDG1TBYUmQUTLuGAOxX-4" value="" style="shape=cylinder3;whiteSpace=wrap;html=1;boundedLbl=1;backgroundOutline=1;size=15;labelBackgroundColor=none;rounded=1;" parent="1" vertex="1">
          <mxGeometry x="366" y="333" width="60" height="80" as="geometry" />
        </mxCell>
        <mxCell id="jbDG1TBYUmQUTLuGAOxX-5" value="NLP Output" style="text;html=1;strokeColor=none;fillColor=none;align=center;verticalAlign=middle;whiteSpace=wrap;rounded=1;labelBackgroundColor=none;" parent="1" vertex="1">
          <mxGeometry x="379" y="374" width="40" height="20" as="geometry" />
        </mxCell>
        <mxCell id="jbDG1TBYUmQUTLuGAOxX-6" value="" style="endArrow=classic;html=1;exitX=0.5;exitY=1;exitDx=0;exitDy=0;entryX=1;entryY=0.25;entryDx=0;entryDy=0;exitPerimeter=0;labelBackgroundColor=none;fontColor=default;rounded=1;" parent="1" source="jbDG1TBYUmQUTLuGAOxX-4" target="jDVds_39IgZBUno7D3Sx-45" edge="1">
          <mxGeometry width="50" height="50" relative="1" as="geometry">
            <mxPoint x="367.02" y="163.03999999999996" as="sourcePoint" />
            <mxPoint x="406" y="343" as="targetPoint" />
          </mxGeometry>
        </mxCell>
      </root>
    </mxGraphModel>
  </diagram>
</mxfile>
